<?xml version="1.0" encoding="UTF-8" standalone="no"?>
<svg
   xmlns:dc="http://purl.org/dc/elements/1.1/"
   xmlns:cc="http://creativecommons.org/ns#"
   xmlns:rdf="http://www.w3.org/1999/02/22-rdf-syntax-ns#"
   xmlns:svg="http://www.w3.org/2000/svg"
   xmlns="http://www.w3.org/2000/svg"
   viewBox="0 0 234.66667 212"
   height="212"
   width="234.66667"
   xml:space="preserve"
   id="svg2"
   version="1.1"><metadata
     id="metadata8"><rdf:RDF><cc:Work
         rdf:about=""><dc:format>image/svg+xml</dc:format><dc:type
           rdf:resource="http://purl.org/dc/dcmitype/StillImage" /></cc:Work></rdf:RDF></metadata><defs
     id="defs6" /><g
     transform="matrix(1.3333333,0,0,-1.3333333,0,212)"
     id="g10"><g
       transform="scale(0.1)"
       id="g12"><path
         id="path14"
         style="fill:#b8def5;fill-opacity:1;fill-rule:evenodd;stroke:none"
         d="m 570.352,973.98 c 4.339,27.35 20,63.52 46.988,108.52 27,44.65 87.66,100 182,165.98 42.691,29.02 80.191,58.51 112.5,88.51 -40.668,70.31 -68.481,129.49 -83.481,177.5 -14.687,48.32 -21.679,73.48 -21.019,75.51 2,-4.02 -10.309,-42.5 -36.988,-115.51 -26.68,-73.01 -78.672,-157.34 -156.012,-253.01 -73.641,-88.67 -117.5,-158.16 -131.488,-208.51 -14.332,-50.31 -20,-89.341 -16.993,-116.99 0.313,-98.679 32.153,-180.82 95.512,-246.492 63.32,-65.66 145.309,-99.84 245.969,-102.5 -96.32,28.992 -166.32,83.481 -210,163.481 -43.981,80.351 -53,168.16 -26.988,263.511" /><path
         id="path16"
         style="fill:#70ccf3;fill-opacity:1;fill-rule:evenodd;stroke:none"
         d="m 702.34,1023.98 c 12,24.65 37.191,54.5 75.512,89.5 38.32,35 111.168,70.35 218.519,106.01 -3.359,3.99 -6.68,8.17 -10,12.5 -29.34,35.31 -54.34,70.31 -75,105 -32.351,-30 -69.691,-59.69 -112.031,-89.02 -94.34,-65.67 -155,-120.98 -182,-165.98 -26.988,-44.69 -42.809,-80.86 -47.5,-108.51 -25.66,-95.32 -16.641,-183.011 27,-263.011 43.672,-80 113.859,-134.489 210.5,-163.481 -83.981,55.313 -135.5,127.66 -154.488,216.992 -18.981,89.34 -2.5,176.02 49.488,260" /><path
         id="path18"
         style="fill:#11b3e8;fill-opacity:1;fill-rule:evenodd;stroke:none"
         d="m 867.852,1031.48 c 16.328,14.34 39.648,29.65 70,46.02 30,15.98 75.668,27.97 136.988,35.98 -19.64,31.01 -45.66,66.32 -78,106.01 -107.66,-36.01 -180.668,-71.33 -218.988,-106.01 -38.012,-35 -63.161,-65 -75.512,-90 -51.988,-83.992 -68.469,-170.511 -49.488,-259.5 18.988,-89.332 70.507,-161.679 154.488,-216.992 -60.66,80.313 -85,165.672 -73,255.981 12.031,90.351 56.519,166.519 133.512,228.511" /><path
         id="path20"
         style="fill:#009cdc;fill-opacity:1;fill-rule:evenodd;stroke:none"
         d="m 1026.37,982.969 c 23.98,10.66 58.98,17.851 105,21.521 -10,29.65 -28.87,65.98 -56.53,108.99 -61.32,-7.66 -107.141,-19.65 -137.5,-35.98 -30,-16.37 -53.16,-31.68 -69.488,-46.02 C 790.859,969.801 746.371,893.629 734.34,802.969 c -12,-90.309 12.18,-175.668 72.5,-255.981 -30,95.981 -24.34,184.653 17.031,265.981 41.641,81.011 109.141,137.691 202.499,170" /><path
         id="path22"
         style="fill:#0078bf;fill-opacity:1;fill-rule:evenodd;stroke:none"
         d="m 1147.34,866.48 c 1.02,9.649 1.53,19.34 1.53,28.989 2.97,24.691 -2.85,61.011 -17.5,109.021 -46.02,-4.02 -81.02,-11.17 -105,-21.521 C 933.012,950.66 865.699,893.828 824.34,812.5 c -41.641,-81.371 -47.309,-170 -17,-266.02 8.012,95 43.832,171.68 107.5,230 63.359,58.321 140.86,88.321 232.5,90" /><path
         id="path24"
         style="fill:#0063a3;fill-opacity:1;fill-rule:evenodd;stroke:none"
         d="m 1112.34,735 c 19.69,40.309 31.53,84.141 35.51,131.48 -91.68,-1.679 -169.33,-31.679 -233.01,-90 -63.32,-58.32 -99.141,-134.839 -107.5,-229.492 32,61.332 75,108.012 129.031,140 54.328,32.352 112.969,48.321 175.969,48.012" /><path
         id="path26"
         style="fill:#00547f;fill-opacity:1;fill-rule:evenodd;stroke:none"
         d="m 1112.34,735 c -63,0.309 -121.641,-15.66 -175.969,-48.012 C 882.34,655 839.34,608.32 807.34,546.988 877.031,547.66 938.199,565 990.859,598.98 1043.52,632.969 1084.02,678.32 1112.34,735" /><path
         id="path28"
         style="fill:#ffffff;fill-opacity:1;fill-rule:evenodd;stroke:none"
         d="m 894.84,1208.48 c 3.68,-0.32 23.359,-17.66 59.031,-52 35.66,-34.64 66.479,-85.15 92.499,-151.48 25.66,-66.371 25.31,-147.5 -1.02,-243.52 1.02,2.348 -0.51,28.989 -4.49,80 -4.02,50.668 -16.52,110.508 -37.5,179.5 -21.329,68.67 -57.501,131.17 -108.52,187.5" /><path
         id="path30"
         style="fill:#3ca443;fill-opacity:1;fill-rule:nonzero;stroke:none"
         d="m 9.57031,338.441 h 3.58989 c 6.3281,0 11.1406,-6.562 14.3789,-19.691 L 148.949,47.5 c 7.571,8.9492 37.379,72.73 89.371,191.41 l 44.84,96.711 c 1.961,1.879 4.262,2.82 6.879,2.82 h 3.59 c 5.391,0 8.601,-4.812 9.531,-14.382 V 14.0586 C 301.602,5.39063 297.77,1.08984 291.762,1.08984 h -0.473 C 283.48,2.42188 279.57,5.94141 279.57,11.5586 V 247.5 H 268.629 C 198.711,89.0586 162.77,8.32031 160.82,5.30859 157.578,2.5 154.488,1.08984 151.602,1.08984 c -7.813,0 -15.473,11.64066 -22.973,34.99996 L 34.7305,246.41 H 23.6289 V 11.5586 c 0,-5.61719 -3.8984,-9.13672 -11.7187,-10.46876 h -0.461 c -6.05857,0 -9.84764,4.30079 -11.4101375,12.96876 V 324.059 C 0.980469,333.629 4.14063,338.441 9.57031,338.441 Z M 378.199,239.691 c 7.891,-1.992 11.879,-5.16 11.879,-9.531 v -97.969 c 0,-44.0699 12.813,-73.8707 38.442,-89.3824 16.011,-12.1875 33.98,-18.2773 53.902,-18.2773 38.129,0 66.758,19.6093 85.937,58.9101 4.063,12.6875 6.09,25.3086 6.09,37.8086 v 105.629 c 1.641,8.512 5.512,12.812 11.571,12.812 7.89,-1.882 11.871,-5.632 11.871,-11.25 V 10.6211 c 0,-4.67969 -3.911,-7.89063 -11.719,-9.53126 -7.813,1.44922 -11.723,5.19922 -11.723,11.24996 v 23.4415 h -9.527 C 539.488,12.6602 512.891,1.08984 485.078,1.08984 h -6.25 c -36.058,0 -67.308,17.73826 -93.75,53.28906 -12.308,18.8203 -18.437,42.3399 -18.437,70.4611 v 99.691 c 1.129,10.078 5,15.16 11.558,15.16 z" /><path
         id="path32"
         style="fill:#3ca443;fill-opacity:1;fill-rule:nonzero;stroke:none"
         d="m 665.121,337.34 h 2.809 c 7.5,-1.481 11.25,-4.328 11.25,-8.59 V 24.8398 h 25.468 c 4.692,0 7.852,-4.0585 9.532,-12.1796 v 0.4609 C 712.809,5.07813 708.949,1.08984 702.621,1.08984 h -35.633 c -6.047,0 -9.84,4.21875 -11.398,12.66016 v 309.371 c 0.93,9.461 4.101,14.219 9.531,14.219 z" /><path
         id="path34"
         style="fill:#3ca443;fill-opacity:1;fill-rule:nonzero;stroke:none"
         d="m 814.73,328.281 h 2.649 c 7.191,-1.48 10.781,-4.222 10.781,-8.281 v -86.719 h 43.442 l 7.968,0.938 c 4.77,0 8.2,-4.219 10.309,-12.66 0,-4.918 -3.359,-8.547 -10,-10.938 l -12.18,0.938 H 828.16 V 73.9102 c 0,-25.9414 9.11,-42.1094 27.352,-48.4414 L 876.91,23.75 h 10.32 c 4.571,0 7.571,-3.8281 9.059,-11.4102 v 0.3204 C 894.922,4.92188 891.211,1.08984 885.199,1.08984 h -18.75 c -25.859,0 -45.121,14.26176 -57.82,42.82036 -2.18,6.75 -3.277,14.9179 -3.277,24.5312 V 211.559 h -24.063 l -13.437,-0.938 c -6.563,2.391 -9.84,6.141 -9.84,11.258 1.328,7.57 6.718,11.402 16.09,11.402 v 0.309 l 2.808,-0.309 h 28.442 v 81.098 c 1.019,9.25 4.136,13.902 9.378,13.902 z" /><path
         id="path36"
         style="fill:#3ca443;fill-opacity:1;fill-rule:nonzero;stroke:none"
         d="m 963.16,302.809 c 8.129,-2.11 12.192,-5.27 12.192,-9.528 v -5.312 c 0,-5 -4.614,-8.199 -13.75,-9.528 -4.692,0 -7.93,4.059 -9.692,12.18 1.449,8.129 5.199,12.188 11.25,12.188 z m 0,-62.5 c 8.129,-2.11 12.192,-5.27 12.192,-9.528 V 11.5586 c 0,-5.61719 -4.024,-9.13672 -12.032,-10.46876 h -0.468 c -5.864,0 -9.614,4.21875 -11.25,12.66016 v 211.41 c 1.128,10.07 5,15.149 11.558,15.149 z" /><path
         id="path38"
         style="fill:#3ca443;fill-opacity:1;fill-rule:nonzero;stroke:none"
         d="m 1060.51,339.219 h 2.97 c 7.57,-1.559 11.4,-4.489 11.4,-8.75 v -193.59 c 93.32,61.871 146.72,96.601 160.16,104.211 h 2.97 c 6.33,0 10.19,-4.531 11.56,-13.59 0,-4.801 -8.91,-11.879 -26.72,-21.25 -47.19,-31.988 -73.12,-48.359 -77.81,-49.059 v -8.132 l 103.75,-131.8676 0.78,-3.4414 v 0.3086 c -1.48,-8.03907 -5.31,-12.02735 -11.56,-12.02735 h -1.72 c -5,0 -14.18,9.60935 -27.5,28.91015 l -85.31,105.9376 h -5.32 l -43.28,-27.66 V 11.5586 c 0,-5.61719 -3.98,-9.13672 -11.87,-10.46876 h -0.47 c -5.74,0 -9.61,3.75 -11.56,11.24996 V 327.031 c 1.64,8.129 4.84,12.188 9.53,12.188 z" /><path
         id="path40"
         style="fill:#3ca443;fill-opacity:1;fill-rule:nonzero;stroke:none"
         d="m 1315.51,337.34 h 2.81 c 7.5,-1.481 11.25,-4.328 11.25,-8.59 V 24.8398 h 25.47 c 4.69,0 7.85,-4.0585 9.53,-12.1796 v 0.4609 C 1363.2,5.07813 1359.34,1.08984 1353.01,1.08984 h -35.63 c -6.05,0 -9.84,4.21875 -11.4,12.66016 v 309.371 c 0.93,9.461 4.1,14.219 9.53,14.219 z" /><path
         id="path42"
         style="fill:#3ca443;fill-opacity:1;fill-rule:nonzero;stroke:none"
         d="m 1441.68,302.809 c 8.12,-2.11 12.19,-5.27 12.19,-9.528 v -5.312 c 0,-5 -4.61,-8.199 -13.75,-9.528 -4.69,0 -7.93,4.059 -9.69,12.18 1.45,8.129 5.19,12.188 11.25,12.188 z m 0,-62.5 c 8.12,-2.11 12.19,-5.27 12.19,-9.528 V 11.5586 c 0,-5.61719 -4.03,-9.13672 -12.03,-10.46876 h -0.47 c -5.86,0 -9.61,4.21875 -11.25,12.66016 v 211.41 c 1.13,10.07 5,15.149 11.56,15.149 z" /><path
         id="path44"
         style="fill:#3ca443;fill-opacity:1;fill-rule:nonzero;stroke:none"
         d="m 1541.21,238.59 c 8.01,-1.871 12.03,-5.07 12.03,-9.531 v -33.59 c 32.07,28.75 62.89,43.121 92.5,43.121 32.58,0 61.49,-13.59 86.72,-40.781 18.32,-22.731 27.5,-46.52 27.5,-71.399 V 10.3086 c 0,-4.48829 -3.91,-7.57813 -11.72,-9.21876 -7.81,1.44922 -11.72,5.19922 -11.72,11.24996 V 114.379 c 0,48.512 -21.17,80.621 -63.43,96.242 -10.24,2.578 -19.34,3.91 -27.35,3.91 h -2.65 c -35.55,0 -62.89,-18.242 -82.04,-54.691 -5.23,-11.481 -7.81,-29.059 -7.81,-52.809 V 11.4102 c 0,-5.55082 -3.9,-8.98832 -11.72,-10.32036 h -0.47 c -5.85,0 -9.6,4.21875 -11.25,12.66016 v 209.84 c 1.14,10 4.93,15 11.41,15 z" /></g></g></svg>